<svg width="653" height="560" viewBox="0 0 653 560" fill="none" xmlns="http://www.w3.org/2000/svg">
<path d="M326.192 365.381C375.109 365.39 422.208 383.948 458.014 417.322C493.82 450.695 515.675 496.408 519.183 545.264C519.319 548.811 520.805 552.172 523.336 554.657C525.868 557.142 529.253 558.563 532.797 558.629H637.968C639.871 558.63 641.756 558.247 643.508 557.502C645.26 556.757 646.844 555.665 648.165 554.292C649.486 552.92 650.517 551.294 651.195 549.513C651.874 547.733 652.187 545.833 652.115 543.928C649.519 458.955 613.94 378.344 552.936 319.22C491.931 260.096 410.31 227.118 325.41 227.292C240.511 227.466 159.025 260.778 98.2627 320.152C37.5006 379.526 2.25103 460.282 0.0025171 545.264C-0.0328631 547.16 0.305038 549.044 0.99692 550.809C1.6888 552.573 2.72111 554.184 4.03488 555.549C5.34864 556.915 6.91813 558.007 8.65368 558.765C10.3892 559.523 12.2569 559.93 14.1499 559.965H119.588C121.469 559.931 123.324 559.521 125.045 558.761C126.766 558 128.318 556.903 129.611 555.534C130.904 554.165 131.91 552.551 132.573 550.788C133.235 549.025 133.539 547.147 133.468 545.264C136.912 496.432 158.711 450.72 194.473 417.341C230.236 383.961 277.303 365.394 326.192 365.381Z" fill="#3355FF"/>
<path d="M624.087 0H28.2966C12.6699 0 0.00195312 12.6848 0.00195312 28.3324V102.905C0.00195312 118.553 12.6699 131.238 28.2966 131.238H624.087C639.714 131.238 652.382 118.553 652.382 102.905V28.3324C652.382 12.6848 639.714 0 624.087 0Z" fill="#3355FF"/>
</svg>
