<svg width="3484" height="809" viewBox="0 0 3484 809" fill="none" xmlns="http://www.w3.org/2000/svg">
<path d="M326.267 434.834C375.195 434.843 422.305 453.399 458.119 486.77C493.933 520.141 515.794 565.85 519.303 614.701C519.439 618.248 520.925 621.608 523.457 624.093C525.989 626.578 529.375 627.998 532.92 628.064H638.115C640.019 628.065 641.904 627.682 643.657 626.937C645.409 626.192 646.994 625.101 648.315 623.728C649.636 622.356 650.667 620.73 651.346 618.95C652.025 617.169 652.338 615.269 652.266 613.365C649.669 528.4 614.082 447.796 553.063 388.678C492.045 329.559 410.404 296.584 325.485 296.758C240.565 296.932 159.06 330.241 98.2838 389.609C37.5074 448.978 2.2496 529.726 0.00056456 614.701C-0.0348239 616.596 0.303157 618.48 0.995201 620.245C1.68725 622.009 2.71979 623.62 4.03387 624.985C5.34794 626.35 6.91779 627.443 8.65376 628.2C10.3897 628.958 12.2578 629.366 14.1512 629.4H119.614C121.495 629.366 123.351 628.957 125.073 628.196C126.794 627.435 128.347 626.338 129.639 624.969C130.932 623.6 131.939 621.987 132.602 620.224C133.264 618.461 133.569 616.583 133.497 614.701C136.942 565.873 158.746 520.166 194.517 486.789C230.288 453.413 277.366 434.848 326.267 434.834Z" fill="#3355FF"/>
<path d="M624.231 69.4878H28.3013C12.6709 69.4878 0 82.1714 0 97.8175V172.383C0 188.029 12.6709 200.713 28.3013 200.713H624.231C639.862 200.713 652.532 188.029 652.532 172.383V97.8175C652.532 82.1714 639.862 69.4878 624.231 69.4878Z" fill="#3355FF"/>
<path d="M1339.24 240.535C1319.09 219.325 1294.84 202.436 1267.97 190.896C1241.09 179.357 1212.16 173.406 1182.92 173.406C1153.67 173.406 1124.74 179.357 1097.86 190.896C1070.99 202.436 1046.74 219.325 1026.59 240.535C984.781 284.949 962.308 344.169 964.115 405.168V809H1065.04V597.596C1076.92 605.776 1089.41 613.014 1102.42 619.244C1127.46 631.005 1154.86 636.857 1182.52 636.349C1211.84 636.883 1240.95 631.233 1267.95 619.768C1294.95 608.302 1319.24 591.278 1339.24 569.801C1381.25 525.261 1403.91 465.867 1402.25 404.634C1403.05 374.477 1397.89 344.459 1387.08 316.3C1376.27 288.141 1360.01 262.394 1339.24 240.535ZM1065.04 404.366C1064.38 369.627 1076.88 335.924 1100.01 310.023C1110.04 298.196 1122.52 288.694 1136.58 282.177C1150.64 275.66 1165.95 272.285 1181.45 272.285C1196.94 272.285 1212.25 275.66 1226.32 282.177C1240.38 288.694 1252.85 298.196 1262.88 310.023C1274.97 322.601 1284.41 337.48 1290.65 353.777C1296.88 370.074 1299.79 387.459 1299.19 404.901C1299.77 422.3 1296.85 439.638 1290.61 455.889C1284.38 472.14 1274.95 486.974 1262.88 499.511C1247.29 517.171 1226.42 529.315 1203.37 534.131C1180.32 538.947 1156.34 536.178 1134.99 526.238C1118.58 517.251 1103.71 505.703 1090.94 492.028C1074.08 475.131 1064.49 452.3 1064.24 428.42L1065.04 404.366Z" fill="black"/>
<path d="M1518.93 118.664C1526.71 118.806 1534.44 117.363 1541.64 114.422C1548.85 111.482 1555.38 107.106 1560.84 101.559C1566.45 96.0718 1570.89 89.4968 1573.87 82.2362C1576.85 74.9755 1578.33 67.1819 1578.2 59.332C1578.18 47.5747 1574.69 36.0858 1568.16 26.3109C1561.63 16.536 1552.36 8.91195 1541.52 4.39803C1530.67 -0.115892 1518.74 -1.31799 1507.21 0.943014C1495.68 3.20401 1485.08 8.82709 1476.74 17.1047C1471.18 22.6292 1466.78 29.2111 1463.8 36.4631C1460.82 43.7151 1459.32 51.4906 1459.39 59.332C1459.32 67.1662 1460.81 74.9357 1463.78 82.1842C1466.75 89.4328 1471.14 96.014 1476.68 101.541C1482.23 107.069 1488.82 111.431 1496.08 114.371C1503.33 117.312 1511.1 118.771 1518.93 118.664Z" fill="black"/>
<path d="M1569.39 180.401H1468.2V628.331H1569.39V180.401Z" fill="black"/>
<path d="M2086.29 0H1985.1V628.599H2086.29V0Z" fill="black"/>
<path d="M2517.75 240.535C2497.58 219.4 2473.34 202.578 2446.5 191.085C2419.65 179.592 2390.76 173.666 2361.56 173.666C2332.36 173.666 2303.47 179.592 2276.62 191.085C2249.78 202.578 2225.54 219.4 2205.37 240.535C2163.72 285.157 2141.28 344.389 2142.89 405.435C2141.23 466.669 2163.89 526.063 2205.9 570.603C2225.78 592.018 2249.93 609.01 2276.79 620.475C2303.66 631.94 2332.63 637.622 2361.83 637.151C2389.43 637.678 2416.79 632.016 2441.92 620.581C2454.73 614.193 2467.04 606.868 2478.77 598.665V629.4H2579.96V404.634C2581.64 343.865 2559.28 284.891 2517.75 240.535ZM2479.84 427.618C2479.66 452.144 2470.11 475.67 2453.14 493.364C2440.72 507.177 2425.88 518.591 2409.35 527.039C2388.04 537.156 2364.01 540.021 2340.92 535.196C2317.83 530.371 2296.95 518.121 2281.46 500.313C2269.4 487.775 2259.96 472.942 2253.73 456.691C2247.49 440.44 2244.57 423.102 2245.15 405.703C2244.55 388.261 2247.46 370.876 2253.7 354.579C2259.93 338.282 2269.38 323.403 2281.46 310.825C2291.37 299.226 2303.65 289.886 2317.46 283.432C2331.28 276.979 2346.31 273.561 2361.56 273.408C2377.37 272.881 2393.1 275.978 2407.54 282.462C2421.98 288.947 2434.74 298.648 2444.86 310.825C2467.94 336.958 2480.33 370.833 2479.57 405.703L2479.84 427.618Z" fill="black"/>
<path d="M3013.02 240.535C2993.19 218.896 2969.04 201.671 2942.13 189.977C2915.23 178.282 2886.16 172.379 2856.83 172.651C2829.24 172.187 2801.88 177.846 2776.73 189.221C2764.05 195.671 2751.83 202.994 2740.16 211.136V0H2637.63V404.634C2635.97 465.867 2658.63 525.261 2700.64 569.801C2720.89 590.842 2745.17 607.578 2772.03 619.01C2798.89 630.442 2827.78 636.334 2856.97 636.334C2886.15 636.334 2915.04 630.442 2941.9 619.01C2968.76 607.578 2993.04 590.842 3013.29 569.801C3034.14 547.78 3050.44 521.853 3061.25 493.509C3072.07 465.165 3077.18 434.961 3076.3 404.634C3077.72 343.71 3054.97 284.704 3013.02 240.535ZM2738.82 382.451C2739.11 357.947 2748.64 334.458 2765.52 316.705C2778.06 303.027 2792.87 291.633 2809.31 283.03C2824.37 276.118 2840.8 272.736 2857.37 273.141C2872.61 273.293 2887.65 276.711 2901.46 283.165C2915.28 289.619 2927.55 298.959 2937.46 310.558C2949.5 323.171 2958.91 338.055 2965.14 354.344C2971.38 370.633 2974.31 388 2973.77 405.435C2974.11 422.731 2971.03 439.923 2964.71 456.022C2958.39 472.122 2948.95 486.811 2936.93 499.244C2927.05 510.891 2914.78 520.282 2900.96 526.782C2887.15 533.283 2872.1 536.743 2856.83 536.928C2841.01 537.344 2825.29 534.17 2810.87 527.644C2796.44 521.118 2783.68 511.409 2773.53 499.244C2750.57 473.167 2738.27 439.384 2739.09 404.634L2738.82 382.451Z" fill="black"/>
<path d="M3393.49 372.295H3389.22C3346.77 361.07 3304.05 349.311 3262.13 337.551C3220.21 325.792 3223.15 312.696 3223.15 308.152C3222.7 304.704 3223.1 301.198 3224.31 297.938C3225.52 294.678 3227.5 291.762 3230.09 289.444C3236.52 284.066 3244.68 281.215 3253.05 281.426H3455.17V180.402H3250.65C3232.93 179.599 3215.24 182.487 3198.7 188.881C3182.15 195.276 3167.11 205.038 3154.53 217.551C3142.93 229.448 3133.81 243.541 3127.72 259.005C3121.62 274.47 3118.66 290.996 3119.02 307.618C3119.02 345.569 3134.77 396.883 3210.07 425.747H3213.54L3337.42 459.957C3379.87 474.656 3379.87 492.83 3379.87 500.848C3380.17 504.362 3379.54 507.892 3378.04 511.083C3376.54 514.274 3374.23 517.012 3371.33 519.022C3356.87 527.353 3340.12 530.819 3323.54 528.91H3119.29V628.599H3316.33C3358.3 631.141 3399.99 620.286 3435.41 597.596C3451.34 586.067 3464.16 570.743 3472.69 553.011C3481.22 535.278 3485.2 515.697 3484.27 496.037C3484.45 468.381 3475.71 441.404 3459.36 419.112C3443.01 396.82 3419.91 380.402 3393.49 372.295Z" fill="black"/>
<path d="M1872.69 322.317H1674.05V421.738H1872.69V322.317Z" fill="black"/>
</svg>
